<?xml version="1.0" encoding="UTF-8" standalone="no"?>
<!-- Created with Inkscape (http://www.inkscape.org/) -->

<svg
   width="210mm"
   height="297mm"
   viewBox="0 0 210 297"
   version="1.1"
   id="svg3396"
   xmlns="http://www.w3.org/2000/svg"
   xmlns:svg="http://www.w3.org/2000/svg">
  <defs
     id="defs3393" />
  <g
     id="layer1">
    <path
       style="fill:#722020;stroke:none;stroke-width:0.600017"
       d="m 51.656923,58.205991 v 1.172304 c 10.39369,0.233238 9.827291,8.876288 9.827291,16.412478 V 127.3728 c 0,7.56204 0.474889,15.95643 -9.827291,16.41247 v 1.17231 h 28.253432 v -1.17231 C 68.550009,143.22138 70.083064,132.3065 70.083064,124.44201 V 61.722947 c 14.48788,0 29.494724,-0.893606 31.938656,16.412456 l -7.984672,0.586152 v 1.172326 c 10.660132,0.09105 8.889992,10.056214 2.957398,15.717749 -6.091688,5.81325 -14.69546,5.38399 -22.611933,5.38399 1.304559,3.48825 7.219356,7.06908 9.929223,9.96472 5.412979,5.7854 15.822524,13.16631 18.569854,20.51559 1.25544,3.35808 0.36852,8.18804 0.36852,11.72317 0,6.58784 -0.73212,13.06081 -9.213062,13.48167 v 1.17233 h 27.025012 v -1.17233 c -10.4378,-0.23975 -9.82727,-9.51807 -9.82727,-16.99863 11.55256,11.25719 22.28886,25.19313 39.92329,27.38009 4.1422,0.51348 13.29507,1.45251 15.96933,-2.17524 -18.76948,0 -29.9173,-12.13819 -42.38012,-24.03252 -3.9174,-3.73852 -11.21169,-9.07257 -13.14214,-14.06783 -2.61467,-6.76779 -0.37036,-17.98807 -0.37036,-25.20486 0,-5.79418 -1.49006,-14.426796 0.98455,-19.84302 1.12277,-2.457527 5.249,-2.396227 7.6143,-2.774751 7.67326,-1.228021 15.29002,-1.076377 21.3903,4.223383 11.46719,9.961903 7.83111,35.657958 -9.7204,37.041298 -7.55166,0.59495 -9.53001,-4.85165 -14.74091,-8.09602 1.87639,20.38485 32.88022,12.61589 38.26495,-1.7585 5.67463,-15.147356 -1.22965,-33.126148 -19.22461,-35.57982 -6.90181,-0.941016 -16.34092,2.842476 -22.58554,1.061135 -2.33828,-0.666992 -2.72277,-4.705455 -3.76692,-6.512473 -2.0582,-3.560688 -5.42649,-6.734611 -9.2714,-8.503347 C 86.772865,54.672973 66.246132,58.205991 51.656923,58.205991 m 51.593187,42.203479 v 18.17094 L 90.351819,105.09873 103.25011,100.40947 M 6.2057805,168.40394 v 21.68792 h 3.0710243 v -18.75711 c 2.3143842,0 5.2299542,-0.41149 7.3344642,0.69107 6.88941,3.60899 -2.908136,6.34109 -6.106055,6.34284 1.842307,4.63711 6.037571,11.54734 11.66989,11.7232 l -6.142048,-9.37857 c 5.343274,-0.92613 8.568526,-6.96472 3.553974,-10.72495 -3.432423,-2.57382 -9.304711,-1.5844 -13.3812495,-1.5844 m 18.4261415,0 -4.92e-4,15.24016 0.511387,5.84519 13.615814,0.60257 v -2.93081 H 27.08874 v -6.44776 h 9.213071 v -2.93078 H 27.08874 v -6.44776 h 11.669891 v -2.93081 H 24.631922 m 26.410804,0 -10.441481,21.68792 12.888844,-4.06855 7.379905,4.06855 c -1.172634,-6.29772 -5.619956,-16.71785 -9.827268,-21.68792 m 11.669882,0 v 21.68792 h 14.740913 v -2.93081 H 65.783639 v -18.75711 h -3.071031 m 15.96933,0 c 0.670723,3.83525 4.713401,2.93081 7.984653,2.93081 v 18.75711 h 3.071031 l -0.614197,-18.75711 h 7.984654 v -2.93081 H 78.681938 m 19.040331,0 c 3.891601,7.94482 9.213071,12.53973 9.213071,21.68792 h 3.07103 c 0,-9.20213 5.30427,-13.70734 9.21307,-21.68792 -5.48485,0.17347 -8.34951,6.8657 -10.44148,11.13705 -3.14226,-3.9302 -5.24591,-10.71559 -11.055691,-11.13705 m 31.324441,0 v 21.68792 h 2.45683 v -8.7924 c 3.20983,0 6.92761,0.43493 9.80025,-1.22507 4.38358,-2.53221 4.24845,-7.93191 6e-4,-10.49285 -3.36092,-2.02576 -8.45513,-1.1776 -12.25768,-1.1776 m 17.81194,0 v 21.68792 h 3.07104 v -18.75711 c 2.12759,0 4.71832,-0.34818 6.72921,0.43493 8.04485,3.1342 -2.69696,6.5984 -6.11502,6.59898 2.65889,4.55388 6.28209,11.53679 12.2841,11.7232 l -6.14206,-9.37857 c 5.61998,-1.08262 8.46006,-7.504 2.9574,-10.9219 -3.5679,-2.21627 -8.73152,-1.38745 -12.78467,-1.38745 m 24.56819,0.38278 c -14.35826,4.29654 -6.67395,25.12514 7.37045,20.92236 14.18385,-4.24379 6.62851,-25.11165 -7.37045,-20.92236 m 19.04036,15.44353 -2.45684,1.17232 c 2.62574,6.31646 16.48649,6.79886 16.24388,-1.50995 -0.20823,-7.12594 -10.10244,-3.94014 -12.71096,-8.51631 -1.31503,-2.30652 1.82356,-3.98237 3.83754,-4.20685 2.68038,-0.29835 4.53837,1.30538 6.14206,3.09609 l 2.45681,-1.17232 c -2.81614,-5.71037 -16.21194,-7.19219 -16.09338,1.17467 0.1105,7.82698 9.88008,3.96243 12.51134,8.85159 1.23148,2.28836 -1.77629,3.98177 -3.78904,4.20685 -2.67976,0.29955 -4.53835,-1.30596 -6.14141,-3.09609 m -15.96933,-13.25072 c 10.93898,-0.70279 12.26873,15.54555 1.22841,16.39196 -11.09069,0.84992 -12.35165,-15.67743 -1.22841,-16.39196 m -42.99433,7.38913 v -7.03391 c 2.5256,0 6.21515,-0.62133 8.45883,0.69107 7.40792,4.33349 -5.87364,6.34284 -8.45883,6.34284 m -79.846617,-2.9308 3.071031,7.62008 h -7.370456 l 3.071031,-7.62008 h 1.228394 m 72.476167,22.27406 h -3.68523 v -1.17233 h 3.68523 c -5.69185,-4.68633 -3.85845,6.83229 0,1.17233 m 4.37805,-2.24148 c -2.42858,0.31184 -1.97528,3.88272 0.50425,3.67992 2.73443,-0.22391 2.11594,-4.01637 -0.50425,-3.67992 m 4.83502,0.483 v 0.58615 l 2.45681,2.34466 -2.45681,-0.58618 v 0.58618 h 3.68523 v -1.17233 l -2.45684,-1.17233 v -0.58615 l 2.45684,0.58615 c -1.16639,-1.52282 -1.93844,-1.3212 -3.68523,-0.58615 m 5.52784,-0.58615 v 0.58615 h 1.84262 v 3.51696 h 1.22839 l 1.22842,-4.68928 -4.29943,0.58617 m 30.71022,2.34463 -3.68523,0.58615 0.61422,-2.34463 3.07101,0.58615 c -5.3012,-4.42491 -4.98243,5.96771 0,1.17233 M 27.08874,195.36729 v 4.10311 h 78.00399 v -4.10311 H 27.08874 m 119.76991,0 -1.84261,4.10311 h 4.91365 l -1.84262,-4.10311 h -1.22842 m 7.98466,0 v 4.10311 l 1.22842,-1.17233 h 0.61419 0.61422 l 1.2284,1.17233 v -4.10311 h -3.68523 m 6.14206,0 v 4.10311 h 1.22839 v -4.10311 h -1.22839 m 12.28408,0 -1.84261,4.10311 h 4.91364 l -1.84261,-4.10311 h -1.22842 m -42.99432,2.93078 -3.07103,-0.58615 0.61422,-1.75848 2.45681,2.34463 m 27.63921,-1.1723 -1.84261,-1.17233 1.84261,1.17233 m -10.44149,0.19518 0.20452,0.19584 c -0.30281,0.0961 -0.67931,-0.19584 -0.20452,-0.19584 m 26.41082,0 0.20452,0.19584 c -0.30281,0.0961 -0.67932,-0.19584 -0.20452,-0.19584 m -79.846622,8.01104 0.61422,0.58617 -0.61422,-0.58617 m 2.456834,0.58617 v 1.75848 h 0.614197 l -0.614197,-1.75848 m 3.070996,0.58615 v 0.58615 c 3.677872,-0.27723 6.421522,-1.03632 9.213082,1.75848 l -10.441472,-1.1723 v 0.58615 c 4.874932,-0.0388 7.360012,-0.12894 11.669882,2.34463 l -1.22841,-1.75848 2.45683,1.17233 c -3.26758,-4.32 -6.59042,-4.1295 -11.669912,-3.51696 m -1.43293,0.19518 0.40906,0.19584 -0.40906,-0.19584 m 18.630682,2.7356 -0.61422,1.17231 0.61422,-1.17231 m -4.91364,0.58616 v 0.58617 h 2.45681 l -2.45681,-0.58615 m -19.450018,0.97712 0.205212,0.39038 -0.205212,-0.39038 m 18.221598,-0.39097 0.61422,0.58617 -0.61422,-0.58617 m -20.268751,1.75848 v 0.58617 h 1.842615 l -1.842615,-0.58617 m 27.025011,-0.58615 -0.6142,1.75847 h 0.6142 v -1.75847 m 0.6142,1.17232 0.61422,0.58615 -0.61422,-0.58615 m -28.253408,0.58615 0.614197,1.75848 h 0.614221 l -1.228418,-1.75848 m 27.639208,0.58616 0.6142,0.58617 -0.6142,-0.58617 m 1.22842,0 0.61419,0.58617 -0.61419,-0.58617 m -29.481825,0.58617 0.614197,0.58615 -0.614197,-0.58615 m 28.867605,0.58615 0.61422,0.58615 -0.61422,-0.58615 m 1.22841,0 1.84262,2.93081 -2.45681,-1.75848 5.52784,4.10311 -4.91365,-5.27544 m -30.096015,0.58615 c 0.222391,2.80245 1.186029,4.35518 4.299426,4.10313 v -0.58617 l -2.456811,-2.34463 h -0.614221 l 1.842615,2.9308 -3.071009,-4.10313 m 32.552825,2.34466 1.22842,1.75847 -1.22842,-1.75847 m -20.26875,0.58615 -0.6142,1.17232 0.6142,-1.17232 m -4.913618,1.17232 0.614197,0.58616 -0.614197,-0.58616 m 6.756228,0 c 0.25612,4.116 1.24808,4.9636 5.52785,4.68926 v -0.58615 h -4.91363 l 0.6142,-4.10311 h -1.22842 m -10.441456,0.58616 v 0.58615 h 2.456811 l -2.456811,-0.58615 m 31.938636,0 0.61419,0.58615 -0.61419,-0.58615 m -28.253408,0.58615 0.614197,0.58617 -0.614197,-0.58617 m 3.070996,0 0.614232,0.58617 -0.614232,-0.58617 m -1.842609,1.17233 v 1.75847 h 0.614219 l -0.614219,-1.75847 m 7.370461,1.95367 0.20451,0.19584 c -0.3028,0.0961 -0.67931,-0.19584 -0.20451,-0.19584 m 4.29945,0.39095 v 0.58618 l 3.071,0.58615 v -0.58615 l -3.071,-0.58618 m 14.12669,0 v 2.93081 l 3.07103,1.17232 -3.07103,-4.10313 m -17.19773,0.58618 v 0.58615 h 1.84262 l -1.84262,-0.58615 m 2.45682,0.58615 v 0.58615 l 7.37045,4.10313 c -1.64053,-2.75319 -4.13604,-4.13242 -7.37045,-4.68928 m 4.29944,0 3.68523,4.68928 h 0.6142 l -4.29943,-4.68928 m 11.05569,2.34463 1.22839,2.9308 h 0.61422 l -1.84261,-2.9308 m 2.45681,1.17233 -1.84261,2.34463 0.61419,2.34465 h 0.61422 l 0.6142,-4.68928 m -9.62275,2.14945 0.20521,0.39038 -0.20521,-0.39038 m -2.04713,1.3675 v 0.58615 h 1.84261 l -1.84261,-0.58615 m 0.61419,2.34463 -0.61419,1.17233 z"
       id="path223" />
  </g>
</svg>
